# xmcd CD database file generated by Grip 3.2.0
# 
# Track frame offsets:
#       150
#       18696
#       36790
#       54342
#       81980
#       94391
#       109014
#       129599
#       145922
#       163807
#       180653
#       186919
#       213734
#       252154
#       273621
#       290163
#       302340
#       315620
# 
# Disc length: 4424 seconds
# 
# Revision: 1
# Processed by: cddbd v1.5.1PL0 Copyright (c) Steve Scherf et al.
# Submitted via: Grip 3.2.0
# 
DISCID=11114612
DTITLE=Bad News Reunion - Two Steps Forward
DYEAR=2003
DGENRE=Blues
TTITLE0=When The Going Gets Too Tough
TTITLE1=On A Rainy Day
TTITLE2=No Second Chance
TTITLE3=Our Old Song
TTITLE4=It Takes A Lot To Laugh, It Takes A Train To Cry
TTITLE5=Without Lies
TTITLE6=The Hands Of Time
TTITLE7=Two Steps Forward
TTITLE8=Breakaway Blues
TTITLE9=Brown Eyed Lies
TTITLE10=4:15 A.M.
TTITLE11=Night Shivers
TTITLE12=Sugar Mama
TTITLE13=Muddy Water (live)
TTITLE14=Revival (live)
TTITLE15=Water In My Eyes (live)
TTITLE16=The Hands Of Time (demo version)
TTITLE17=Two Steps Forward (demo version)
EXTD=YEAR: 1981
EXTT0=
EXTT1=
EXTT2=
EXTT3=
EXTT4=
EXTT5=
EXTT6=
EXTT7=
EXTT8=
EXTT9=
EXTT10=
EXTT11=
EXTT12=
EXTT13=
EXTT14=
EXTT15=
EXTT16=
EXTT17=
PLAYORDER=
